HIERARCHY
ROOT Hips
{
  OFFSET 0 0 0
  CHANNELS 6 Xposition Yposition Zposition Zrotation Yrotation Xrotation
  JOINT LeftThigh
  {
    OFFSET 8.409438 0 -5.917753
    CHANNELS 3 Zrotation Yrotation Xrotation
    JOINT LeftLeg
    {
      OFFSET 0 0 -42.358652
      CHANNELS 3 Zrotation Yrotation Xrotation
      JOINT LeftFoot
      {
        OFFSET 0 0 -39.357303
        CHANNELS 3 Zrotation Yrotation Xrotation
      }
    }
  }
  JOINT RightThigh
  {
    OFFSET -8.409438 0 -5.917753
    CHANNELS 3 Zrotation Yrotation Xrotation
    JOINT RightLeg
    {
      OFFSET 0 0 -42.358652
      CHANNELS 3 Zrotation Yrotation Xrotation
      JOINT RightFoot
      {
        OFFSET 0 0 -39.357303
        CHANNELS 3 Zrotation Yrotation Xrotation
      }
    }
  }
  JOINT SpineLow
  {
    OFFSET 0 0 4.719101
    CHANNELS 3 Zrotation Yrotation Xrotation
    JOINT SpineMid
    {
      OFFSET 0 0 12.899191
      CHANNELS 3 Zrotation Yrotation Xrotation
      JOINT Chest
      {
        OFFSET 0 0 12.899191
        CHANNELS 3 Zrotation Yrotation Xrotation
        JOINT LeftShoulder
        {
          OFFSET 7.550562 1.41573 9.438202
          CHANNELS 3 Zrotation Yrotation Xrotation
          JOINT LeftArm
          {
            OFFSET 9.155056 0 4.247191
            CHANNELS 3 Zrotation Yrotation Xrotation
            JOINT LeftForearm
            {
              OFFSET 0 0 25.771955
              CHANNELS 3 Zrotation Yrotation Xrotation
              JOINT LeftHand
              {
                OFFSET 0 0 25.197169
                CHANNELS 3 Zrotation Yrotation Xrotation
              }
            }
          }
        }
        JOINT RightShoulder
        {
          OFFSET -7.550562 1.41573 9.438202
          CHANNELS 3 Zrotation Yrotation Xrotation
          JOINT RightArm
          {
            OFFSET -9.155056 0 4.247191
            CHANNELS 3 Zrotation Yrotation Xrotation
            JOINT RightForearm
            {
              OFFSET 0 0 -25.771955
              CHANNELS 3 Zrotation Yrotation Xrotation
              JOINT RightHand
              {
                OFFSET 0 0 -25.197169
                CHANNELS 3 Zrotation Yrotation Xrotation
              }
            }
          }
        }
        JOINT Neck
        {
          OFFSET 0 0 15.101124
          CHANNELS 3 Zrotation Yrotation Xrotation
          JOINT Head
          {
            OFFSET 0 0 11.325843
            CHANNELS 3 Zrotation Yrotation Xrotation
            End Site
            {
              OFFSET 0 0 14.157303
            }
          }
        }
      }
    }
  }
}
MOTION
Frames: 16
Frame Time: 0.0
0.0  101.685394  0.0  1.19923  25.660386  -87.861232  -7.016046  0.54113  36.1037  11.327167  -0.378841  13.525085  3.646791  0.036747  1.163884  -21.090264  -7.622751  -45.426649  6.679492  15.834572  52.724347  27.979987  5.416093  6.135385  -10.576871  0.183434  -1.104787  -28.912237  0.013722  -3.033067  -28.912236  0.013723  -3.033067  4.833409  25.106895  10.256833  163.132714  67.667646  -175.137251  -68.145999  -39.813212  127.785097  59.144237  9.161521  -2.507091  42.977533  -1.156291  27.858982  93.83475  71.436178  4.439842  -38.061817  10.574136  -108.026108  94.07641  -31.664721  25.652783  10.123102  -3.445943  -3.971207  7.56801  -2.651212  -2.921312  
0.0  101.685394  0.0  0.795284  24.503383  -88.812335  -7.759811  2.488733  35.167642  13.201979  -2.044596  15.941754  3.363372  0.30568  1.62339  -21.010819  -8.193493  -43.240576  7.159205  15.004842  50.990781  27.919121  5.245831  6.6603  -10.44542  0.25225  -1.024738  -28.556425  0.237938  -2.848923  -28.556425  0.237938  -2.848923  4.060429  23.506125  9.965069  161.298436  69.036606  -178.144205  -69.717969  -42.304762  127.300688  59.392433  9.472047  -2.933675  43.004199  -0.750936  26.521133  97.679083  72.610894  7.191463  -39.990186  11.154688  -106.218804  92.888903  -33.064301  28.098861  10.269135  -3.494163  -3.47822  7.679858  -2.680049  -2.549926  
0.0  101.685394  0.0  0.44771  23.290344  -89.79482  -8.304759  3.891798  33.863232  14.287676  -3.530089  19.090949  2.345204  0.691239  2.099557  -20.898878  -8.665075  -41.072117  7.741756  14.096887  49.265285  27.690557  5.068815  7.124089  -10.321763  0.34189  -1.009586  -28.222643  0.48957  -2.846331  -28.222643  0.48957  -2.846331  3.721169  21.88797  10.084394  157.929704  70.720852  177.597002  -70.644306  -45.095172  125.48671  59.732295  9.325642  -4.028358  43.200415  -0.416509  25.497339  103.676974  74.110449  11.758031  -41.753304  12.103939  -103.532205  90.359068  -34.455481  32.668543  10.318674  -3.510266  -2.772575  7.720836  -2.680468  -2.020122  
0.0  101.685394  0.0  0.156881  22.241495  -90.739804  -8.91  4.771845  32.198533  13.899261  -4.408447  22.845635  1.43916  1.102853  2.661006  -20.82474  -9.005277  -39.032159  8.223284  13.363397  47.619695  27.497746  4.870167  7.477341  -10.236858  0.450576  -0.985943  -27.995777  0.794117  -2.828319  -27.995777  0.794117  -2.828319  3.514979  20.142523  10.197121  153.103463  72.715635  172.171422  -70.362348  -48.074176  121.950234  60.272222  8.909002  -5.689638  43.795588  -0.166065  24.34921  111.324151  75.959361  18.168145  -42.791684  13.133947  -99.902241  86.348292  -35.382768  39.327908  10.405096  -3.523091  -2.031512  7.789744  -2.67785  -1.463598  
0.0  101.685394  0.0  -0.07974  21.340298  -91.614675  -9.49291  5.244083  30.222482  12.12432  -4.529655  27.206752  0.486864  1.55156  3.06526  -20.739848  -9.212175  -37.168386  8.513852  12.952838  46.039486  27.482358  4.556048  7.708638  -10.173061  0.575527  -0.937161  -27.827282  1.151765  -2.749261  -27.827284  1.151765  -2.749261  3.27292  18.160336  10.054293  145.478709  74.591703  164.292625  -68.521682  -51.126087  116.405924  60.728259  8.327853  -8.168845  44.29235  0.193052  22.792177  121.049823  77.803439  26.650332  -42.848703  14.006736  -95.536654  81.654521  -35.68834  47.319191  10.528415  -3.507731  -1.285589  7.886499  -2.653886  -0.903704  
0.0  101.685394  0.0  -0.265408  20.790842  -92.362447  -10.174039  5.405381  27.89994  9.304678  -3.817093  32.069083  -1.413725  1.998854  3.070226  -20.920164  -9.374284  -35.515541  8.720855  12.72835  44.534831  27.508111  4.202947  7.884586  -10.148923  0.702292  -0.89331  -27.767312  1.51045  -2.684235  -27.767312  1.51045  -2.684235  3.210196  16.205774  9.905687  134.036748  76.138797  153.1302  -64.699967  -53.987408  108.442294  61.101972  7.578392  -11.344511  44.868222  0.637406  21.114672  133.038127  79.5448  37.776694  -41.704519  14.925512  -90.681951  78.274548  -36.341377  54.296541  10.658422  -3.422897  -0.449783  7.988921  -2.575944  -0.277568  
0.0  101.685394  0.0  -0.366706  20.315313  -93.102904  -10.593694  5.446196  25.388363  5.857514  -2.270772  37.122156  -4.500254  2.276849  2.667586  -21.175806  -9.408624  -33.940723  8.797864  12.600971  43.055585  27.575773  3.831384  8.02708  -10.13426  0.822584  -0.834501  -27.732568  1.857583  -2.576456  -27.732567  1.857583  -2.576456  2.815244  14.385555  9.560732  119.519732  76.975898  138.923332  -58.358168  -56.235439  97.400513  61.341731  6.473635  -15.027119  45.657834  1.28729  19.412248  146.695186  80.993312  51.126919  -39.303068  15.9718  -85.183719  77.033668  -39.243365  57.568413  10.795327  -3.246419  0.418446  8.096554  -2.428323  0.371297  
0.0  101.685394  0.0  -0.365445  20.060849  -93.736243  -11.002684  5.543034  22.65554  2.427572  -0.096755  42.199037  -8.587062  2.357445  1.831524  -20.414374  -9.260548  -31.910818  7.790784  13.031681  41.032239  27.399825  3.504189  8.024059  -10.140896  0.927545  -0.768779  -27.754858  2.16563  -2.444265  -27.754858  2.16563  -2.444266  2.503837  12.577719  9.061404  102.947115  76.761227  123.250258  -49.574601  -56.99694  83.290746  61.817217  4.862906  -18.50088  46.593028  2.126336  17.701486  161.665543  82.116615  66.554525  -36.667326  17.311723  -79.65529  77.386495  -43.773608  54.850252  10.915079  -2.971205  1.195967  8.190326  -2.207891  0.950251  
0.0  101.685394  0.0  -0.264818  19.894776  -94.34515  -11.222585  5.792202  19.957083  -1.452669  3.149175  47.152701  -11.196077  2.126519  0.52016  -20.890333  -8.88425  -30.630779  7.632502  12.79191  39.672808  27.563392  3.123373  8.100534  -10.153876  1.039935  -0.711671  -27.79494  2.489772  -2.338552  -27.794941  2.489772  -2.338552  1.938663  10.756849  8.527171  86.949211  75.438581  107.639703  -40.752044  -55.018156  68.515092  62.927607  3.020757  -20.708718  47.784339  3.127404  16.288231  179.221147  83.015702  85.011382  -33.120153  18.90487  -73.944682  77.172356  -46.918886  47.610085  10.946367  -2.661837  1.867404  8.216522  -1.963701  1.448567  
0.0  101.685394  0.0  -0.133307  19.955255  -94.898581  -11.654924  5.959781  17.19435  -5.455822  7.982808  51.720344  -11.030423  1.953751  -0.969777  -21.508575  -8.432607  -29.463262  7.596238  12.412787  38.453838  27.701735  2.738007  8.16124  -10.216627  1.146634  -0.65353  -27.9706  2.797222  -2.229771  -27.970601  2.797222  -2.229771  1.588846  9.11424  8.144328  73.28845  73.273833  94.357008  -33.86054  -50.942167  55.14719  64.367765  0.931867  -20.741882  49.279507  4.211328  15.025288  -160.040183  82.982643  106.639198  -27.468822  19.321868  -67.827785  72.467437  -46.749565  41.91616  11.080053  -2.343742  2.381379  8.318162  -1.715331  1.829018  
0.0  101.685394  0.0  -0.007641  20.090967  -95.541478  -12.100642  5.874355  14.401856  -8.435395  13.70126  55.581801  -9.934233  1.555412  -1.987224  -22.171764  -7.94167  -28.211217  7.428262  12.153175  37.123215  27.734238  2.369123  8.206838  -10.293697  1.248915  -0.57066  -28.184051  3.102878  -2.054136  -28.184051  3.102878  -2.054136  1.240194  7.662672  7.752489  61.36003  70.798681  82.948374  -28.664507  -44.959382  43.442944  65.656096  -1.139848  -18.719823  51.100996  5.276267  13.838969  -142.184138  81.447545  125.365283  -20.334447  16.391404  -61.155795  63.244536  -42.644142  41.407773  11.210464  -2.011324  2.715605  8.416117  -1.459293  2.074236  
0.0  101.685394  0.0  0.029027  20.570439  -96.323206  -12.587765  5.682942  11.81532  -10.519819  19.574513  58.65185  -6.877924  1.248013  -2.339659  -23.126069  -7.447384  -26.85233  7.605371  11.491151  36.108605  27.239617  2.235612  8.113066  -10.401427  1.365046  -0.444354  -28.479834  3.463355  -1.77038  -28.479834  3.463354  -1.77038  0.724572  6.142909  7.38826  51.41652  68.854358  74.12283  -24.239774  -38.063373  32.775923  66.305231  -3.510903  -16.057068  53.024295  6.212942  12.399395  -133.694684  79.247735  135.226705  -14.019703  9.424875  -55.115207  56.106935  -36.928078  43.729107  11.340011  -1.779939  2.932809  8.513096  -1.281088  2.233383  
0.0  101.685394  0.0  0.123572  21.089092  -97.156962  -13.310862  5.330929  9.224308  -11.37595  24.831734  61.403763  -3.321357  1.466915  -2.37415  -24.046586  -6.850587  -25.492166  7.28366  11.395828  34.810258  27.335064  1.922084  8.130626  -10.447256  1.508881  -0.281488  -28.605142  3.916147  -1.39847  -28.605144  3.916147  -1.39847  -0.411448  4.715058  6.890167  45.344252  66.982702  69.20714  -21.82019  -31.192008  23.526022  66.836567  -6.390618  -14.624175  54.855686  7.150799  10.830933  -132.452688  77.252995  138.640592  -10.948405  2.40505  -49.836269  56.360484  -34.258856  43.075713  11.308573  -1.648216  3.027494  8.489254  -1.180649  2.301908  
0.0  101.685394  0.0  0.133279  21.594042  -98.138112  -14.082525  4.876524  6.694289  -10.951701  28.230672  64.32721  -1.03062  2.066693  -2.246017  -24.919309  -6.248205  -24.066046  6.811388  11.389421  33.543718  27.666357  1.612398  8.176291  -10.444876  1.634288  -0.022844  -28.590459  4.362116  -0.759592  -28.590459  4.362116  -0.759591  -1.885829  3.134932  5.883192  43.091245  63.96686  67.077816  -22.839425  -24.199228  16.236522  68.350698  -9.12704  -15.067368  56.852445  8.667458  9.610501  -134.26205  73.642032  139.210708  -12.044751  0.886816  -45.182637  61.338671  -38.790716  35.53792  11.201189  -1.574316  2.890304  8.408029  -1.128236  2.197331  
0.0  101.685394  0.0  0.157522  22.150269  -99.032706  -14.884728  4.351009  4.045959  -9.439163  30.473521  67.441723  0.507736  2.540564  -1.975766  -25.755952  -5.672745  -22.814995  6.402699  11.460493  32.390697  27.945813  1.309271  8.197649  -10.432085  1.7484  0.222346  -28.545025  4.772149  -0.150854  -28.545024  4.772149  -0.150854  -2.933792  1.317474  5.019039  42.518521  60.368919  66.071897  -25.845328  -17.39337  9.94456  71.132099  -12.085647  -15.707709  59.30462  10.253214  9.43143  -139.680267  67.282716  137.470135  -15.727242  3.793706  -38.501144  68.364275  -42.258454  20.351811  11.109858  -1.530849  2.771362  8.33904  -1.098208  2.107063  
0.0  101.685394  0.0  0.178872  22.626193  -99.780321  -15.421441  3.504939  1.183983  -6.780536  31.464371  71.071043  0.850358  2.542261  -1.75888  -26.496457  -5.156097  -21.772605  5.95699  11.550638  31.264344  28.32796  0.993569  8.268819  -10.46515  1.865117  0.407064  -28.627364  5.162941  0.291533  -28.627365  5.162941  0.291533  -2.965575  -0.465235  4.983031  41.686257  57.647974  65.596322  -28.389306  -12.230118  3.564093  73.668956  -14.508097  -14.392317  62.352511  11.162151  9.852815  -145.390755  62.763297  136.685087  -18.593609  3.940713  -35.681694  67.199372  -43.226286  15.710722  11.287503  -1.577539  2.692201  8.472235  -1.13391  2.049  
